<?xml version="1.0" encoding="UTF-8"?>
<svg version="1.1" xmlns="http://www.w3.org/2000/svg" width="1599" height="515">
<path d="M0 0 C2.84250189 0.01073932 5.68437218 0.00000962 8.52685547 -0.01269531 C25.68500889 -0.02746788 42.68178117 1.0228619 59.46826172 4.76074219 C60.49306641 4.9734375 61.51787109 5.18613281 62.57373047 5.40527344 C69.92965476 6.98500421 69.92965476 6.98500421 73.34326172 9.26074219 C73.05829834 9.78055664 72.77333496 10.30037109 72.47973633 10.8359375 C71.07874331 13.39347728 69.67958292 15.95201389 68.28076172 18.51074219 C67.75289063 19.4755249 67.22501953 20.44030762 66.68115234 21.43432617 C63.53510996 27.19827318 60.42222415 32.97825441 57.34716797 38.78027344 C56.6747573 40.04624201 56.00231278 41.31219261 55.32983398 42.578125 C54.34080438 44.44037504 53.35364486 46.30349604 52.37228394 48.1697998 C51.45054892 49.92259574 50.52201474 51.671811 49.59326172 53.42089844 C49.06216797 54.42773682 48.53107422 55.4345752 47.98388672 56.47192383 C46.3199892 59.30030201 44.45383237 61.75300573 42.34326172 64.26074219 C41.40869141 64.06738281 40.47412109 63.87402344 39.51123047 63.67480469 C22.61896198 60.28044076 5.91371375 58.91966859 -11.30810547 59 C-14.02350312 59.01070971 -16.73823553 59.00002996 -19.45361328 58.98730469 C-35.55080211 58.97389082 -51.6985648 59.95958313 -67.53173828 63.01074219 C-68.42626709 63.17993164 -69.3207959 63.34912109 -70.24243164 63.5234375 C-111.01247829 71.50380647 -155.14817676 88.48370412 -181.65673828 122.26074219 C-182.80529297 123.65486328 -182.80529297 123.65486328 -183.97705078 125.07714844 C-204.22639635 150.05186373 -212.51285648 178.56939731 -209.4296875 210.62109375 C-208.85596829 214.94169523 -207.86897609 219.07925793 -206.65673828 223.26074219 C-206.32802734 224.40027344 -205.99931641 225.53980469 -205.66064453 226.71386719 C-200.93987177 241.28455682 -193.52469232 253.51874126 -182.65673828 264.26074219 C-181.80208984 265.12699219 -180.94744141 265.99324219 -180.06689453 266.88574219 C-178.20885283 268.71668118 -176.36380767 270.42940664 -174.34423828 272.07324219 C-173.01392578 273.15605469 -173.01392578 273.15605469 -171.65673828 274.26074219 C-172.31673828 274.59074219 -172.97673828 274.92074219 -173.65673828 275.26074219 C-200.10074821 261.71736905 -221.19702885 236.33655243 -230.32080078 208.21386719 C-240.08832529 175.8203049 -235.42276275 140.1207066 -219.78173828 110.38574219 C-208.09012517 89.00614196 -191.63417922 70.4159081 -172.65673828 55.26074219 C-172.08117187 54.79958008 -171.50560547 54.33841797 -170.91259766 53.86328125 C-137.4613301 27.41387834 -95.75609319 11.91845746 -54.15673828 4.38574219 C-53.1103418 4.19488037 -52.06394531 4.00401855 -50.98583984 3.80737305 C-34.07016142 0.93472744 -17.13707314 -0.07659685 0 0 Z " fill="#D84344" transform="translate(323.65673828125,89.7392578125)"/>
<path d="M0 0 C0.933815 -0.00358521 1.86763 -0.00717041 2.82974243 -0.01086426 C19.69561035 -0.04563657 36.21890825 1.19913149 52.8125 4.3125 C52.8125 8.33042553 52.44165308 9.5187306 50.64453125 12.92578125 C50.16918945 13.83384521 49.69384766 14.74190918 49.20410156 15.67749023 C48.68299805 16.65016846 48.16189453 17.62284668 47.625 18.625 C46.82980957 20.12945679 46.82980957 20.12945679 46.01855469 21.66430664 C40.16459171 32.66657517 34.01872679 43.5059907 27.8125 54.3125 C27.18907715 54.22685791 26.5656543 54.14121582 25.92333984 54.05297852 C-18.05417821 48.05236084 -66.84796033 46.7454269 -105.01953125 73.28125 C-107.50489419 75.20540195 -109.85773827 77.2032837 -112.1875 79.3125 C-112.96738281 80.01117188 -113.74726563 80.70984375 -114.55078125 81.4296875 C-127.21336258 93.38997441 -134.18758351 108.88540518 -135.14453125 126.24658203 C-135.43149633 140.04373245 -131.51283908 152.27459514 -123.421875 163.47265625 C-122.1875 165.3125 -122.1875 165.3125 -121.1875 168.3125 C-120.5275 168.3125 -119.8675 168.3125 -119.1875 168.3125 C-118.1975 170.2925 -118.1975 170.2925 -117.1875 172.3125 C-129.33212507 168.17081614 -138.61302406 154.87736157 -144.80859375 144.140625 C-154.14976833 124.98195533 -156.34819298 102.6456391 -149.52099609 82.32910156 C-147.91925732 77.90954869 -146.09868194 73.60632255 -144.1875 69.3125 C-143.65962891 68.12333984 -143.65962891 68.12333984 -143.12109375 66.91015625 C-140.69663577 61.78734755 -137.75772687 56.71918002 -134.1875 52.3125 C-133.5275 52.3125 -132.8675 52.3125 -132.1875 52.3125 C-131.94 51.755625 -131.6925 51.19875 -131.4375 50.625 C-128.20222493 44.63974112 -123.34761969 40.58755062 -118.1875 36.3125 C-117.32898438 35.57 -116.47046875 34.8275 -115.5859375 34.0625 C-99.76284526 21.03662987 -80.80259482 12.79019389 -61.1875 7.3125 C-60.45901855 7.10689453 -59.73053711 6.90128906 -58.97998047 6.68945312 C-54.08686979 5.34353613 -49.16838305 4.27697399 -44.1875 3.3125 C-43.47368164 3.16296875 -42.75986328 3.0134375 -42.02441406 2.859375 C-28.12196875 0.04122968 -14.12584711 0.02182896 0 0 Z " fill="#D84344" transform="translate(291.1875,191.6875)"/>
<path d="M0 0 C0 4.14246362 -0.51022893 5.45088119 -2.40625 8.984375 C-2.90253906 9.91894531 -3.39882813 10.85351562 -3.91015625 11.81640625 C-4.43480469 12.78449219 -4.95945312 13.75257813 -5.5 14.75 C-6.02464844 15.73355469 -6.54929687 16.71710938 -7.08984375 17.73046875 C-8.3859279 20.15768089 -9.68951337 22.58054258 -11 25 C-11.98355469 24.86722656 -12.96710938 24.73445313 -13.98046875 24.59765625 C-42.28126064 20.92672632 -75.67311445 18.49418299 -100.33984375 35.625 C-106.60488129 40.6650302 -110.7962472 46.98300634 -112 55 C-112.70201014 63.47015518 -111.64705845 70.42721435 -108.77734375 78.41796875 C-108 81 -108 81 -109 83 C-119.37362723 69.92356666 -124.26005303 57.75870528 -123 41 C-121.29954356 33.0201472 -117.48122759 26.94257339 -112 21 C-111.38769531 20.33355469 -110.77539062 19.66710937 -110.14453125 18.98046875 C-82.41127072 -8.21636508 -35.25649339 -7.15790579 0 0 Z " fill="#D74344" transform="translate(303,281)"/>
<path d="M0 0 C0.86366684 -0.00570007 1.72733368 -0.01140015 2.61717224 -0.01727295 C4.45057956 -0.02673239 6.28400396 -0.03326067 8.11743164 -0.03710938 C10.89826074 -0.04675248 13.67833082 -0.07774015 16.45898438 -0.109375 C18.24348521 -0.11591152 20.02799132 -0.12115944 21.8125 -0.125 C22.63472549 -0.1373468 23.45695099 -0.1496936 24.30409241 -0.16241455 C31.27793896 -0.13604522 37.64556421 1.02270137 43.18359375 5.453125 C51.49127088 15.89706197 51.69721716 26.26214505 51.62109375 39.203125 C51.63269531 41.17539063 51.63269531 41.17539063 51.64453125 43.1875 C51.62198202 54.41701541 50.93399623 64.23335795 42.921875 72.7421875 C36.8559188 78.18721905 30.51307304 78.52662336 22.7734375 78.57421875 C21.40560875 78.58776146 21.40560875 78.58776146 20.01014709 78.60157776 C18.08972436 78.61603449 16.16925287 78.62495556 14.2487793 78.62866211 C11.31410315 78.64060258 8.38150147 78.68986861 5.44726562 78.74023438 C3.57683313 78.74969471 1.70638779 78.7569316 -0.1640625 78.76171875 C-1.03813248 78.78125107 -1.91220245 78.80078339 -2.8127594 78.82090759 C-3.63388718 78.81482986 -4.45501495 78.80875214 -5.30102539 78.80249023 C-6.01795059 78.80756088 -6.73487579 78.81263153 -7.473526 78.81785583 C-10.92340925 77.8339229 -12.44095118 75.98435199 -14.62890625 73.203125 C-15.25709534 70.04722595 -15.25709534 70.04722595 -15.26000977 66.45678711 C-15.26716507 65.79923935 -15.27432037 65.14169159 -15.2816925 64.46421814 C-15.29852869 62.30225008 -15.27921332 60.14237065 -15.2578125 57.98046875 C-15.25864159 56.47261891 -15.26110249 54.96476915 -15.26512146 53.45692444 C-15.2679758 50.30197843 -15.25331351 47.14774381 -15.22583008 43.99291992 C-15.19171739 39.95183953 -15.19777799 35.9120283 -15.21649265 31.8708868 C-15.22706691 28.75925643 -15.2181217 25.6479208 -15.20310783 22.53631783 C-15.19793058 21.04640135 -15.19840232 19.55645403 -15.20465279 18.06654167 C-15.21011183 15.9837116 -15.18971417 13.90269198 -15.16235352 11.82006836 C-15.15615494 10.63601913 -15.14995636 9.45196991 -15.14356995 8.23204041 C-14.52630705 4.59930489 -13.48270797 3.45289399 -10.62890625 1.203125 C-7.32259182 -0.45003222 -3.63569229 0.01847362 0 0 Z M-2.62890625 13.203125 C-2.73786474 14.78810169 -2.77795622 16.37788126 -2.79003906 17.96655273 C-2.79964661 18.98108017 -2.80925415 19.9956076 -2.81915283 21.0408783 C-2.82340271 22.14500565 -2.82765259 23.249133 -2.83203125 24.38671875 C-2.83773132 25.51255875 -2.8434314 26.63839874 -2.8493042 27.7983551 C-2.85877037 30.18497777 -2.86529457 32.57161361 -2.86914062 34.95825195 C-2.8788555 38.62148658 -2.90986813 42.28416263 -2.94140625 45.94726562 C-2.94793488 48.26041332 -2.9531859 50.57356504 -2.95703125 52.88671875 C-2.96937805 53.98882187 -2.98172485 55.09092499 -2.9944458 56.22642517 C-2.9914447 57.24410477 -2.9884436 58.26178436 -2.98535156 59.31030273 C-2.98899719 60.20885483 -2.99264282 61.10740692 -2.99639893 62.03318787 C-2.87512634 62.74926712 -2.75385376 63.46534637 -2.62890625 64.203125 C2.39193131 67.55035004 8.22461835 66.53048507 14.12109375 66.515625 C15.384375 66.53173828 16.64765625 66.54785156 17.94921875 66.56445312 C24.47550108 66.56788079 29.67852378 66.55505374 35.37109375 63.203125 C42.00509894 56.1268528 39.70403382 40.52036744 39.46435547 31.34326172 C39.22094095 22.6026643 39.22094095 22.6026643 35.60546875 14.9453125 C31.38506585 11.65457877 26.53664229 12.07508589 21.35546875 12.0703125 C20.69903381 12.06935577 20.04259888 12.06839905 19.36627197 12.06741333 C17.98799544 12.0667362 16.60971563 12.06855777 15.23144531 12.07275391 C13.11386062 12.07814341 10.99648471 12.07277564 8.87890625 12.06640625 C7.53775995 12.06706644 6.19661377 12.06834638 4.85546875 12.0703125 C3.02580566 12.07200439 3.02580566 12.07200439 1.15917969 12.07373047 C-1.53542234 11.88511939 -1.53542234 11.88511939 -2.62890625 13.203125 Z " fill="#D64445" transform="translate(487.62890625,116.796875)"/>
<path d="M0 0 C0.97514053 -0.01283524 1.95028107 -0.02567047 2.95497131 -0.03889465 C4.01840256 -0.04628159 5.0818338 -0.05366852 6.17749023 -0.0612793 C7.26690414 -0.06935104 8.35631805 -0.07742279 9.47874451 -0.08573914 C11.79310504 -0.09960414 14.10748624 -0.11031542 16.421875 -0.11816406 C19.94693495 -0.13530765 23.47104042 -0.17916488 26.99584961 -0.22338867 C29.24388958 -0.23352125 31.49193754 -0.24203558 33.73999023 -0.2487793 C34.78925186 -0.26628738 35.83851349 -0.28379547 36.91957092 -0.30183411 C43.54410292 -0.28239928 47.77099856 0.65846403 53.42358398 4.17700195 C55.04467773 6.17700195 55.04467773 6.17700195 55.86108398 8.17700195 C56.14854492 8.83700195 56.43600586 9.49700195 56.73217773 10.17700195 C59.56696318 18.3770593 59.69411453 28.09306122 56.54077148 36.23168945 C54.57664787 39.65173686 51.88250207 42.28017591 48.42358398 44.17700195 C47.10358398 44.17700195 45.78358398 44.17700195 44.42358398 44.17700195 C46.12204784 52.60909204 51.19572154 59.48774416 55.63256836 66.72387695 C56.2584082 67.76543945 56.88424805 68.80700195 57.52905273 69.88012695 C58.39759888 71.29793457 58.39759888 71.29793457 59.28369141 72.74438477 C60.42358398 75.17700195 60.42358398 75.17700195 59.42358398 78.17700195 C57.67573931 78.31261059 55.92484472 78.40927404 54.17358398 78.48950195 C53.19905273 78.54750977 52.22452148 78.60551758 51.22045898 78.6652832 C47.3566126 77.99072902 46.68257686 76.31838434 44.42358398 73.17700195 C43.24411769 71.25049021 42.10638444 69.29797472 41.00561523 67.32543945 C40.39137695 66.2271582 39.77713867 65.12887695 39.14428711 63.99731445 C38.51458008 62.86036133 37.88487305 61.7234082 37.23608398 60.55200195 C36.59477539 59.40731445 35.9534668 58.26262695 35.29272461 57.08325195 C30.56090185 48.58895556 30.56090185 48.58895556 29.42358398 45.17700195 C22.16358398 45.50700195 14.90358398 45.83700195 7.42358398 46.17700195 C7.36299805 48.40321289 7.30241211 50.62942383 7.23999023 52.9230957 C7.17824279 55.07099959 7.11483778 57.21884855 7.05126953 59.36669922 C7.00786585 60.86339465 6.96619486 62.36014134 6.92626953 63.85693359 C6.86869782 66.00414508 6.80496683 68.15109716 6.73999023 70.2980957 C6.70333252 71.59158936 6.6666748 72.88508301 6.62890625 74.21777344 C6.42358398 77.17700195 6.42358398 77.17700195 5.42358398 78.17700195 C3.75929347 78.27524132 2.09076468 78.30673826 0.42358398 78.30200195 C-0.93766602 78.30586914 -0.93766602 78.30586914 -2.32641602 78.30981445 C-4.57641602 78.17700195 -4.57641602 78.17700195 -5.57641602 77.17700195 C-5.67426943 75.83155868 -5.70439587 74.48107633 -5.70581055 73.13208008 C-5.70896271 72.27449097 -5.71211487 71.41690186 -5.71536255 70.5333252 C-5.71333832 69.60105103 -5.71131409 68.66877686 -5.70922852 67.70825195 C-5.71018524 66.75760864 -5.71114197 65.80696533 -5.71212769 64.82751465 C-5.71280958 62.81331313 -5.71095464 60.79910943 -5.70678711 58.78491211 C-5.70143899 55.69029841 -5.70673179 52.59582986 -5.71313477 49.5012207 C-5.71247399 47.54939746 -5.71119283 45.59757432 -5.70922852 43.64575195 C-5.71125275 42.71347778 -5.71327698 41.78120361 -5.71536255 40.82067871 C-5.71221039 39.9630896 -5.70905823 39.10550049 -5.70581055 38.22192383 C-5.70501495 37.46327026 -5.70421936 36.7046167 -5.70339966 35.92297363 C-5.57641602 34.17700195 -5.57641602 34.17700195 -4.57641602 33.17700195 C4.6161473 31.65294387 14.07564731 32.09154379 23.36108398 32.17700195 C26.30769477 32.20367099 29.25424158 32.22357838 32.20092773 32.23950195 C33.49248779 32.25110352 34.78404785 32.26270508 36.11474609 32.2746582 C39.86944051 32.17991609 39.86944051 32.17991609 43.42358398 31.17700195 C45.87684198 26.6209514 45.48147672 22.3411861 45.10327148 17.34887695 C44.64005009 15.04934019 44.64005009 15.04934019 42.66667175 14.06019592 C40.23297155 13.10195016 38.46191016 12.90815059 35.85449219 12.87402344 C34.95708817 12.85738144 34.05968414 12.84073944 33.13508606 12.82359314 C31.69427925 12.81097191 31.69427925 12.81097191 30.22436523 12.7980957 C28.7381794 12.77260399 28.7381794 12.77260399 27.2219696 12.74659729 C24.06007229 12.69349373 20.89818829 12.65316671 17.73608398 12.61450195 C14.56333346 12.57062578 11.39068642 12.52399807 8.21806335 12.47169495 C6.24386867 12.43964617 4.269582 12.41278504 2.29524231 12.39146423 C1.40729477 12.3779744 0.51934723 12.36448456 -0.39550781 12.35058594 C-1.18064255 12.34107407 -1.96577728 12.33156219 -2.77470398 12.32176208 C-4.57641602 12.17700195 -4.57641602 12.17700195 -5.57641602 11.17700195 C-5.67465539 9.51271144 -5.70615232 7.84418264 -5.70141602 6.17700195 C-5.70399414 5.26950195 -5.70657227 4.36200195 -5.70922852 3.42700195 C-5.47062239 -0.61526658 -3.58246075 0.04091741 0 0 Z " fill="#D64444" transform="translate(569.576416015625,116.822998046875)"/>
<path d="M0 0 C0.91742477 -0.00307663 1.83484955 -0.00615326 2.78007507 -0.00932312 C3.76248672 -0.0021376 4.74489838 0.00504791 5.75708008 0.01245117 C7.27655998 0.0131385 7.27655998 0.0131385 8.82673645 0.01383972 C10.96425551 0.01685755 13.10177247 0.02472981 15.23925781 0.03710938 C18.52457392 0.05540857 21.80960887 0.05761872 25.0949707 0.05737305 C27.16984295 0.0622867 29.24471328 0.06811435 31.31958008 0.07495117 C32.30806442 0.076064 33.29654877 0.07717682 34.31498718 0.07832336 C35.22295547 0.08470322 36.13092377 0.09108307 37.06640625 0.09765625 C38.27075569 0.10337395 38.27075569 0.10337395 39.49943542 0.10920715 C41.33911133 0.24291992 41.33911133 0.24291992 42.33911133 1.24291992 C42.4373507 2.90721044 42.46884764 4.57573923 42.46411133 6.24291992 C42.46797852 7.60416992 42.46797852 7.60416992 42.47192383 8.99291992 C42.33911133 11.24291992 42.33911133 11.24291992 41.33911133 12.24291992 C38.24992866 12.3909687 35.18031989 12.47807535 32.08911133 12.52416992 C31.16066406 12.54257935 30.2322168 12.56098877 29.27563477 12.57995605 C25.28519636 12.6589265 21.29458148 12.7264728 17.30395508 12.79516602 C14.39891891 12.84677112 11.4940338 12.90407058 8.58911133 12.96166992 C7.22351074 12.98203308 7.22351074 12.98203308 5.83032227 13.00280762 C1.75976147 12.67584314 1.75976147 12.67584314 -1.66088867 14.24291992 C-1.74720742 15.58559405 -1.7679534 16.93266314 -1.75854492 18.27807617 C-1.75532227 19.08696289 -1.75209961 19.89584961 -1.7487793 20.72924805 C-1.74040039 21.57938477 -1.73202148 22.42952148 -1.72338867 23.30541992 C-1.71887695 24.15942383 -1.71436523 25.01342773 -1.7097168 25.89331055 C-1.69789241 28.00987656 -1.67995636 30.12640677 -1.66088867 32.24291992 C-0.66758545 32.22720947 0.32571777 32.21149902 1.34912109 32.1953125 C5.0596495 32.14071793 8.77014291 32.10646336 12.48095703 32.078125 C14.08225489 32.06310526 15.68351208 32.04268329 17.28466797 32.01660156 C19.59588704 31.97991555 21.90655889 31.96312557 24.21801758 31.94995117 C24.92559708 31.93446732 25.63317657 31.91898346 26.36219788 31.9030304 C31.49231429 31.90132136 34.8583792 32.93994424 39.33911133 35.24291992 C45.5752443 41.67480595 45.60375565 49.99409859 45.48754883 58.46557617 C45.08988368 65.90610038 43.81677936 71.02002715 38.33911133 76.24291992 C33.45474678 79.03134394 28.09825798 78.54869601 22.63989258 78.54370117 C21.60849655 78.5479863 20.57710052 78.55227142 19.51445007 78.5566864 C17.34004449 78.5624183 15.16561974 78.56293838 12.99121094 78.55859375 C9.65307351 78.55542131 6.31581191 78.57895065 2.9777832 78.60424805 C0.86515412 78.60651979 -1.24747736 78.60722512 -3.36010742 78.60620117 C-4.36216721 78.61541092 -5.36422699 78.62462067 -6.39665222 78.6341095 C-7.32133804 78.62788071 -8.24602386 78.62165192 -9.19873047 78.61523438 C-10.01415817 78.6158638 -10.82958588 78.61649323 -11.66972351 78.61714172 C-12.32680801 78.49364853 -12.98389252 78.37015533 -13.66088867 78.24291992 C-16.10665694 74.57426752 -15.89696121 72.57091649 -15.66088867 68.24291992 C-15.16588867 67.25291992 -15.16588867 67.25291992 -14.66088867 66.24291992 C8.10911133 65.74791992 8.10911133 65.74791992 31.33911133 65.24291992 C31.33911133 58.64291992 31.33911133 52.04291992 31.33911133 45.24291992 C28.97754883 45.27772461 26.61598633 45.3125293 24.18286133 45.34838867 C21.87265225 45.37184553 19.56245689 45.39002707 17.25219727 45.40771484 C15.65773492 45.42271737 14.06331325 45.44312613 12.46899414 45.46923828 C10.16518055 45.50600126 7.86191673 45.52273147 5.55786133 45.53588867 C4.85544312 45.55137253 4.1530249 45.56685638 3.42932129 45.58280945 C-1.86314928 45.58457277 -5.81574259 44.39562212 -10.66088867 42.24291992 C-16.18061159 36.12467283 -15.91565862 26.7161264 -15.80932617 18.95385742 C-15.42469271 11.92923579 -13.65278151 7.23481276 -8.66088867 2.24291992 C-5.6822301 0.41560257 -3.47304548 -0.00614583 0 0 Z " fill="#D54445" transform="translate(1151.660888671875,116.757080078125)"/>
<path d="M0 0 C7.33758559 4.08428808 9.67849085 11.16453153 12.5390625 18.6328125 C13.03098058 19.87414441 13.52469902 21.1147642 14.02011108 22.35470581 C15.3146884 25.60828624 16.58549857 28.8706312 17.85113525 32.13555908 C19.12924556 35.42130759 20.42844378 38.69867906 21.7265625 41.9765625 C24.07128889 47.90145855 26.39233768 53.8353426 28.70831299 59.77154541 C30.41529309 64.03798743 32.24040805 68.25084214 34.09164429 72.45651245 C35 75 35 75 35 79 C31.04 79 27.08 79 23 79 C19.76249938 71.83825621 16.76082782 64.5975244 13.8125 57.3125 C10.99026578 50.34898021 8.16822222 43.38620661 5.28125 36.44921875 C4.86383545 35.44270264 4.4464209 34.43618652 4.01635742 33.39916992 C3.22901593 31.50306766 2.43767216 29.6086211 1.6418457 27.71606445 C1.11723755 26.4489563 1.11723755 26.4489563 0.58203125 25.15625 C0.12147339 24.05506836 0.12147339 24.05506836 -0.34838867 22.93164062 C-1 21 -1 21 -1 18 C-2.94011458 18.0678511 -2.94011458 18.0678511 -5 19 C-6.47200524 21.48215903 -6.47200524 21.48215903 -7.54296875 24.609375 C-8.19362305 26.33027344 -8.19362305 26.33027344 -8.85742188 28.0859375 C-9.29634766 29.29507813 -9.73527344 30.50421875 -10.1875 31.75 C-10.63802734 32.94367188 -11.08855469 34.13734375 -11.55273438 35.3671875 C-14.23923532 42.5515854 -14.23923532 42.5515854 -16 50 C-14.77023437 49.89558594 -14.77023437 49.89558594 -13.515625 49.7890625 C-10.2597241 49.62548853 -7.23556808 49.58639875 -4 50 C-0.39176456 53.52432299 0.65196674 57.01152331 1 62 C0 63 0 63 -2.22485352 63.11352539 C-3.18319092 63.10828857 -4.14152832 63.10305176 -5.12890625 63.09765625 C-6.16337891 63.09443359 -7.19785156 63.09121094 -8.26367188 63.08789062 C-9.35228516 63.07951172 -10.44089844 63.07113281 -11.5625 63.0625 C-13.2012207 63.05573242 -13.2012207 63.05573242 -14.87304688 63.04882812 C-17.58208495 63.03699826 -20.29101599 63.02051543 -23 63 C-23.19916016 63.67981934 -23.39832031 64.35963867 -23.60351562 65.06005859 C-23.86841797 65.95547363 -24.13332031 66.85088867 -24.40625 67.7734375 C-24.66728516 68.65950684 -24.92832031 69.54557617 -25.19726562 70.45849609 C-26.3431235 74.08634905 -27.20691041 76.34656489 -30 79 C-33.71806119 79.49430871 -37.27323635 79.34697455 -41 79 C-42 77 -42 77 -41.37353516 74.86914062 C-41.01565918 73.97388672 -40.6577832 73.07863281 -40.2890625 72.15625 C-39.67043335 70.5930603 -39.67043335 70.5930603 -39.03930664 68.99829102 C-38.57258545 67.84385498 -38.10586426 66.68941895 -37.625 65.5 C-37.14474365 64.29851318 -36.6644873 63.09702637 -36.16967773 61.85913086 C-35.07885202 59.1319044 -33.98238699 56.40701264 -32.88330078 53.68310547 C-31.15899916 49.40435956 -29.45606523 45.11730688 -27.75537109 40.82913208 C-26.24204799 37.01809689 -24.72050018 33.21037895 -23.19720459 29.40332031 C-22.44265069 27.51423653 -21.69072333 25.62410145 -20.94146729 23.73291016 C-19.87681689 21.04900682 -18.80108859 18.36979631 -17.72265625 15.69140625 C-17.24813271 14.48521385 -17.24813271 14.48521385 -16.76402283 13.25465393 C-14.74702341 8.28625515 -12.65416544 3.85791581 -8.125 0.6875 C-5.07900095 -0.29797028 -3.2010561 -0.50212645 0 0 Z " fill="#D64444" transform="translate(1344,116)"/>
<path d="M0 0 C0.9075 0.00257812 1.815 0.00515625 2.75 0.0078125 C4.11125 0.00394531 4.11125 0.00394531 5.5 0 C7.75 0.1328125 7.75 0.1328125 8.75 1.1328125 C8.90888092 3.42270031 9.00138073 5.71724691 9.06640625 8.01171875 C9.08718735 8.6983812 9.10796844 9.38504364 9.12937927 10.09251404 C9.19494143 12.29334185 9.25379015 14.49429225 9.3125 16.6953125 C9.35567892 18.18425764 9.399293 19.67319023 9.44335938 21.16210938 C9.5514515 24.81888642 9.65047374 28.47575197 9.75 32.1328125 C18.165 31.6378125 18.165 31.6378125 26.75 31.1328125 C27.41 29.4828125 28.07 27.8328125 28.75 26.1328125 C29.79563451 24.14356493 30.87256577 22.17059521 31.97265625 20.2109375 C32.90368164 18.54998047 32.90368164 18.54998047 33.85351562 16.85546875 C34.49998047 15.70949219 35.14644531 14.56351563 35.8125 13.3828125 C36.469643 12.20977093 37.12654642 11.03659511 37.78320312 9.86328125 C42.61215996 1.27065254 42.61215996 1.27065254 43.75 0.1328125 C45.60287502 0.06054748 47.45833878 0.0490003 49.3125 0.0703125 C50.32441406 0.07933594 51.33632812 0.08835937 52.37890625 0.09765625 C53.16136719 0.10925781 53.94382812 0.12085937 54.75 0.1328125 C55.75 3.1328125 55.75 3.1328125 54.76538086 5.42602539 C54.25370361 6.3102417 53.74202637 7.19445801 53.21484375 8.10546875 C52.37083008 9.57983398 52.37083008 9.57983398 51.50976562 11.08398438 C50.90841797 12.11072266 50.30707031 13.13746094 49.6875 14.1953125 C49.11322266 15.19498047 48.53894531 16.19464844 47.94726562 17.22460938 C43.3370348 25.22364573 43.3370348 25.22364573 40.94189453 28.93310547 C40.3848584 29.80209473 39.82782227 30.67108398 39.25390625 31.56640625 C38.49509155 32.7100061 38.49509155 32.7100061 37.72094727 33.87670898 C36.49118725 36.73419259 36.8388727 38.20220766 37.75 41.1328125 C38.92038391 43.32901839 38.92038391 43.32901839 40.5 45.5703125 C44.37513107 51.48455866 48.05438858 57.5044373 51.6875 63.5703125 C52.27950195 64.54218506 52.87150391 65.51405762 53.48144531 66.51538086 C54.0328418 67.43971924 54.58423828 68.36405762 55.15234375 69.31640625 C55.90245728 70.56248657 55.90245728 70.56248657 56.66772461 71.83374023 C57.75 74.1328125 57.75 74.1328125 57.75 78.1328125 C55.88162819 78.37769618 54.00384156 78.55131369 52.125 78.6953125 C51.08085938 78.79972656 50.03671875 78.90414062 48.9609375 79.01171875 C44.54736842 77.80362502 43.54871513 75.62418335 41.25439453 71.80395508 C40.75794434 70.92247803 40.26149414 70.04100098 39.75 69.1328125 C38.9763208 67.80769653 38.9763208 67.80769653 38.18701172 66.45581055 C36.6005627 63.71524564 35.04591238 60.9589222 33.5 58.1953125 C32.45612849 56.33034694 31.40939095 54.46698179 30.359375 52.60546875 C29.90530273 51.79343994 29.45123047 50.98141113 28.98339844 50.14477539 C27.78174448 48.00903588 27.78174448 48.00903588 25.75 46.1328125 C23.00514407 45.98773555 20.36519457 45.94628827 17.625 46.0078125 C16.87089844 46.01683594 16.11679688 46.02585938 15.33984375 46.03515625 C13.47642746 46.0587438 11.61317407 46.09461531 9.75 46.1328125 C9.72494385 47.06665771 9.6998877 48.00050293 9.67407227 48.96264648 C9.57913072 52.41606439 9.47988742 55.8693021 9.37768555 59.32250977 C9.33428187 60.81920519 9.29261087 62.31595189 9.25268555 63.81274414 C9.19511384 65.95995562 9.13138284 68.10690771 9.06640625 70.25390625 C9.02974854 71.5473999 8.99309082 72.84089355 8.95532227 74.17358398 C8.75 77.1328125 8.75 77.1328125 7.75 78.1328125 C6.08570949 78.23105187 4.41718069 78.26254881 2.75 78.2578125 C1.38875 78.26167969 1.38875 78.26167969 0 78.265625 C-2.25 78.1328125 -2.25 78.1328125 -3.25 77.1328125 C-3.35025695 74.76519675 -3.38618935 72.42674177 -3.37939453 70.05859375 C-3.38114685 69.31878265 -3.38289917 68.57897156 -3.38470459 67.81674194 C-3.3891231 65.35957527 -3.38618513 62.90247997 -3.3828125 60.4453125 C-3.38348554 58.74519843 -3.38445557 57.04508445 -3.38571167 55.3449707 C-3.38718864 51.77717169 -3.38503411 48.20939767 -3.38037109 44.64160156 C-3.3746738 40.05792756 -3.37795281 35.47431211 -3.38394356 30.89064026 C-3.38754919 27.37861689 -3.38641057 23.86660752 -3.38381577 20.35458374 C-3.3831465 18.66401157 -3.38397489 16.97343814 -3.38629532 15.28286743 C-3.38882189 12.92422093 -3.38498121 10.56567055 -3.37939453 8.20703125 C-3.38141876 7.50154144 -3.38344299 6.79605164 -3.38552856 6.06918335 C-3.35963759 0.19831194 -3.35963759 0.19831194 0 0 Z " fill="#D64444" transform="translate(1408.25,116.8671875)"/>
<path d="M0 0 C0.98159592 -0.00960754 1.96319183 -0.01921509 2.97453308 -0.02911377 C4.04423843 -0.03336365 5.11394379 -0.03761353 6.21606445 -0.04199219 C7.85730034 -0.0505423 7.85730034 -0.0505423 9.5316925 -0.05926514 C11.85445178 -0.06873435 14.17722461 -0.0752567 16.5 -0.07910156 C20.04687191 -0.08877859 23.59315755 -0.11977264 27.13989258 -0.15136719 C29.39444642 -0.15789977 31.64900442 -0.16314924 33.90356445 -0.16699219 C35.49294075 -0.18551239 35.49294075 -0.18551239 37.11442566 -0.20440674 C44.32463862 -0.18271083 48.81443695 0.64230153 54.1418457 5.84863281 C58.99734621 12.21854988 59.10237665 20.4764673 58.3918457 28.16113281 C57.24353736 33.58416563 55.48957907 38.2910513 51.3918457 42.16113281 C45.88374571 45.04994757 41.55523497 45.57405577 35.39575195 45.45410156 C34.56220688 45.44985672 33.7286618 45.44561188 32.86985779 45.4412384 C30.23101259 45.42456595 27.59295655 45.38693639 24.9543457 45.34863281 C23.15552868 45.33357114 21.35669957 45.31988534 19.55786133 45.30761719 C15.16888955 45.27470009 10.78050101 45.22299848 6.3918457 45.16113281 C6.39708252 46.125271 6.40231934 47.08940918 6.40771484 48.08276367 C6.42576688 51.64785846 6.43727844 55.21294917 6.44677734 58.77807617 C6.4518171 60.32333047 6.4586489 61.86857998 6.46728516 63.41381836 C6.47936646 65.6303831 6.48507743 67.846885 6.48950195 70.06347656 C6.49466324 70.75827621 6.49982452 71.45307587 6.50514221 72.16893005 C6.50533847 73.83342611 6.45373699 75.4977878 6.3918457 77.16113281 C5.3918457 78.16113281 5.3918457 78.16113281 3.1418457 78.29394531 C2.2343457 78.29136719 1.3268457 78.28878906 0.3918457 78.28613281 C-0.9694043 78.29 -0.9694043 78.29 -2.3581543 78.29394531 C-4.6081543 78.16113281 -4.6081543 78.16113281 -5.6081543 77.16113281 C-5.7009376 75.77953167 -5.72562472 74.39325244 -5.72167969 73.00854492 C-5.72156639 71.68728859 -5.72156639 71.68728859 -5.72145081 70.33934021 C-5.71370888 68.9034127 -5.71370888 68.9034127 -5.70581055 67.43847656 C-5.7043956 66.46326553 -5.70298065 65.4880545 -5.70152283 64.48329163 C-5.69590562 61.35504138 -5.68335022 58.22686158 -5.6706543 55.09863281 C-5.66564151 52.98339947 -5.66107822 50.86816501 -5.65698242 48.75292969 C-5.64593061 43.55563985 -5.62917576 38.35839136 -5.6081543 33.16113281 C-5.03852463 33.15082535 -4.46889496 33.14051788 -3.88200378 33.12989807 C2.03890478 33.02184004 7.95966095 32.90724137 13.88037109 32.78881836 C16.09095068 32.74546729 18.3015638 32.70379235 20.51220703 32.66381836 C23.68703319 32.60612015 26.86169056 32.5424242 30.03637695 32.47753906 C31.02708694 32.46082657 32.01779694 32.44411407 33.03852844 32.42689514 C33.95925644 32.40694992 34.87998444 32.3870047 35.82861328 32.36645508 C36.63913651 32.3509108 37.44965973 32.33536652 38.28474426 32.3193512 C40.58331254 32.2330356 40.58331254 32.2330356 43.3918457 31.16113281 C44.81782182 28.30918059 44.5238709 25.83652106 44.5168457 22.66113281 C44.51942383 21.49582031 44.52200195 20.33050781 44.5246582 19.12988281 C44.59668881 16.23182495 44.59668881 16.23182495 43.3918457 14.16113281 C40.60129388 13.23094887 38.82685694 13.01753437 35.9362793 12.97167969 C35.03879974 12.95496216 34.14132019 12.93824463 33.21664429 12.92102051 C32.25094513 12.90744507 31.28524597 12.89386963 30.2902832 12.87988281 C29.2980777 12.86147339 28.30587219 12.84306396 27.28359985 12.82409668 C23.03203233 12.74531206 18.78030667 12.67748389 14.52856445 12.60888672 C11.42822062 12.55730896 8.32801941 12.50001587 5.2277832 12.44238281 C4.25803558 12.42880737 3.28828796 12.41523193 2.28915405 12.40124512 C0.9523912 12.37616882 0.9523912 12.37616882 -0.41137695 12.35058594 C-1.59360336 12.33179382 -1.59360336 12.33179382 -2.79971313 12.31262207 C-4.6081543 12.16113281 -4.6081543 12.16113281 -5.6081543 11.16113281 C-5.70639367 9.4968423 -5.73789061 7.8283135 -5.7331543 6.16113281 C-5.73573242 5.25363281 -5.73831055 4.34613281 -5.7409668 3.41113281 C-5.50148105 -0.64603753 -3.5912293 0.0282523 0 0 Z " fill="#D64444" transform="translate(968.608154296875,116.8388671875)"/>
<path d="M0 0 C1.37781395 0.00280975 1.37781395 0.00280975 2.78346252 0.00567627 C4.70878779 0.01235748 6.6341004 0.02619276 8.55932617 0.046875 C11.51949544 0.07829044 14.47913294 0.08787683 17.43945312 0.09375 C19.31380864 0.10291052 21.18815872 0.11328323 23.0625 0.125 C23.95094101 0.12924988 24.83938202 0.13349976 25.75474548 0.13787842 C31.94918446 0.21090321 31.94918446 0.21090321 33.06640625 1.328125 C33.16464562 2.99241551 33.19614256 4.66094431 33.19140625 6.328125 C33.19527344 7.689375 33.19527344 7.689375 33.19921875 9.078125 C33.06640625 11.328125 33.06640625 11.328125 32.06640625 12.328125 C29.32670447 12.46374625 26.60871353 12.53876732 23.8671875 12.57421875 C22.16601086 12.60717706 20.46483911 12.64038835 18.76367188 12.67382812 C16.07563892 12.72111555 13.3876229 12.76549713 10.69946289 12.80493164 C8.10931753 12.84483149 5.51959625 12.89635452 2.9296875 12.94921875 C1.73403923 12.96183998 1.73403923 12.96183998 0.51423645 12.97471619 C-3.95763189 13.07301241 -7.80258961 13.41158031 -11.93359375 15.328125 C-12.83836955 18.04245239 -13.06850512 19.66727845 -13.09472656 22.46069336 C-13.10913788 23.70229469 -13.10913788 23.70229469 -13.12384033 24.96897888 C-13.13021515 26.30497887 -13.13021515 26.30497887 -13.13671875 27.66796875 C-13.14241882 28.5864711 -13.1481189 29.50497345 -13.1539917 30.4513092 C-13.16343611 32.39387868 -13.16997346 34.33646413 -13.17382812 36.27905273 C-13.18354518 39.25077172 -13.21457836 42.22180236 -13.24609375 45.19335938 C-13.25262287 47.08072506 -13.2578737 48.96809569 -13.26171875 50.85546875 C-13.27406555 51.74411118 -13.28641235 52.6327536 -13.2991333 53.54832458 C-13.28638127 57.07886235 -13.26017786 59.64426527 -11.72558594 62.85766602 C-7.4865608 66.33609223 -1.62062889 65.51832698 3.61328125 65.609375 C4.4250885 65.62778442 5.23689575 65.64619385 6.07330322 65.66516113 C9.53457873 65.74363148 12.99603387 65.81189652 16.45751953 65.88037109 C18.98870955 65.9319315 21.51972425 65.98920615 24.05078125 66.046875 C24.83926453 66.06045044 25.6277478 66.07402588 26.44012451 66.0880127 C31.95350336 66.21522211 31.95350336 66.21522211 33.06640625 67.328125 C33.16464562 68.99241551 33.19614256 70.66094431 33.19140625 72.328125 C33.19527344 73.689375 33.19527344 73.689375 33.19921875 75.078125 C33.06640625 77.328125 33.06640625 77.328125 32.06640625 78.328125 C29.05742165 78.45431994 26.07272145 78.51685054 23.0625 78.53125 C22.15065445 78.53695007 21.2388089 78.54265015 20.29933167 78.54852295 C18.3615943 78.55799323 16.42384068 78.56451494 14.48608398 78.56835938 C11.54055908 78.57800497 8.59574976 78.60898371 5.65039062 78.640625 C3.76693122 78.64716093 1.88346683 78.65240908 0 78.65625 C-0.87427139 78.6685968 -1.74854279 78.6809436 -2.64930725 78.69366455 C-9.05002299 78.6707156 -14.55667221 77.70988302 -19.921875 73.92578125 C-27.66438456 64.94995158 -27.42138614 52.81506157 -27.32470703 41.55566406 C-27.30861279 39.33075686 -27.32464624 37.10766524 -27.34375 34.8828125 C-27.36018868 24.26541273 -27.17794868 13.14237717 -19.921875 4.73046875 C-13.69834223 0.34098296 -7.34637515 -0.10374838 0 0 Z " fill="#D54445" transform="translate(846.93359375,116.671875)"/>
<path d="M0 0 C0.79289932 -0.0033284 1.58579865 -0.0066568 2.40272522 -0.01008606 C4.08317483 -0.01515851 5.76363454 -0.01749429 7.4440918 -0.01733398 C10.02083884 -0.01951911 12.59715701 -0.03766734 15.17382812 -0.05664062 C16.80338395 -0.0595747 18.43294181 -0.0615594 20.0625 -0.0625 C21.22349464 -0.07327827 21.22349464 -0.07327827 22.40794373 -0.08427429 C27.86883372 -0.06085378 27.86883372 -0.06085378 30.09765625 2.16796875 C30.35162354 4.35327148 30.35162354 4.35327148 30.35644531 7.1015625 C30.36274963 8.13023438 30.36905396 9.15890625 30.37554932 10.21875 C30.37150085 11.33636719 30.36745239 12.45398438 30.36328125 13.60546875 C30.36615143 15.33023438 30.36615143 15.33023438 30.36907959 17.08984375 C30.37044337 19.53108945 30.36673357 21.97234236 30.35839844 24.41357422 C30.34777964 28.12484404 30.35824691 31.83562111 30.37109375 35.546875 C30.36977066 37.92057398 30.36720519 40.29427265 30.36328125 42.66796875 C30.36732971 43.76939209 30.37137817 44.87081543 30.37554932 46.00561523 C30.31626764 55.91569308 29.72087729 65.31083255 23.09765625 73.16796875 C16.99469719 78.02542596 12.1975924 78.31525801 4.61328125 78.265625 C3.79768738 78.26421005 2.98209351 78.2627951 2.14178467 78.26133728 C-0.45629587 78.25575178 -3.05428938 78.24320196 -5.65234375 78.23046875 C-7.41666542 78.22545187 -9.18098844 78.22088929 -10.9453125 78.21679688 C-15.26435631 78.2057871 -19.58333529 78.18853244 -23.90234375 78.16796875 C-26.33314044 73.63822475 -25.73981901 71.19282029 -24.90234375 66.16796875 C-16.73290258 65.06675881 -8.75090981 65.12882338 -0.52148438 65.29492188 C7.02264987 65.4831669 7.02264987 65.4831669 14.09765625 63.16796875 C15.9497126 60.23945438 16.35993877 57.9228292 16.41650391 54.49121094 C16.4363736 53.57055847 16.45624329 52.64990601 16.47671509 51.70135498 C16.4940419 50.22303192 16.4940419 50.22303192 16.51171875 48.71484375 C16.5310849 47.69948547 16.55045105 46.6841272 16.57040405 45.63800049 C16.63013724 42.3980751 16.67656053 39.15811407 16.72265625 35.91796875 C16.76084176 33.72003667 16.79989383 31.52211947 16.83984375 29.32421875 C16.9358336 23.93893419 17.02089948 18.55355992 17.09765625 13.16796875 C16.34556885 13.1429126 15.59348145 13.11785645 14.81860352 13.09204102 C11.43226429 12.97646361 8.04623012 12.8535653 4.66015625 12.73046875 C2.88415039 12.67149414 2.88415039 12.67149414 1.07226562 12.61132812 C-0.61479492 12.54848633 -0.61479492 12.54848633 -2.3359375 12.484375 C-3.37806396 12.44771729 -4.42019043 12.41105957 -5.49389648 12.37329102 C-7.90234375 12.16796875 -7.90234375 12.16796875 -8.90234375 11.16796875 C-9.00058312 9.50367824 -9.03208006 7.83514944 -9.02734375 6.16796875 C-9.03121094 4.80671875 -9.03121094 4.80671875 -9.03515625 3.41796875 C-8.73955635 -1.58984128 -3.93695452 0.00564564 0 0 Z " fill="#D54445" transform="translate(1246.90234375,116.83203125)"/>
<path d="M0 0 C1.79294196 -0.02540417 3.5859107 -0.04902408 5.37890625 -0.0703125 C6.59126953 -0.09025269 6.59126953 -0.09025269 7.828125 -0.1105957 C9.70075727 -0.11287839 11.57303459 -0.00908275 13.44140625 0.1171875 C15.44140625 2.1171875 15.44140625 2.1171875 15.70703125 4.2109375 C15.701875 5.005 15.69671875 5.7990625 15.69140625 6.6171875 C15.69914062 7.80828125 15.69914062 7.80828125 15.70703125 9.0234375 C15.44140625 11.1171875 15.44140625 11.1171875 13.44140625 13.1171875 C11.53048706 13.35769653 11.53048706 13.35769653 9.17529297 13.34423828 C8.29453094 13.34408722 7.41376892 13.34393616 6.50631714 13.34378052 C5.55419342 13.33345795 4.6020697 13.32313538 3.62109375 13.3125 C2.16039963 13.30825516 2.16039963 13.30825516 0.67019653 13.30392456 C-2.44785724 13.29270663 -5.56562643 13.2675992 -8.68359375 13.2421875 C-10.79426669 13.23215978 -12.90494413 13.22303357 -15.015625 13.21484375 C-20.1967121 13.19276208 -25.3776326 13.15926879 -30.55859375 13.1171875 C-30.57557762 14.54553129 -30.58764036 15.9739341 -30.59765625 17.40234375 C-30.60490723 18.19777588 -30.6121582 18.99320801 -30.61962891 19.81274414 C-30.53506388 23.00558117 -30.07349015 25.29397149 -28.55859375 28.1171875 C-23.62770927 30.32804344 -18.96099648 30.45473367 -13.66015625 30.53125 C-12.82519623 30.55061615 -11.99023621 30.5699823 -11.12997437 30.5899353 C-8.48128249 30.64938364 -5.83254632 30.69597644 -3.18359375 30.7421875 C-1.38019011 30.78039932 0.42319591 30.81945289 2.2265625 30.859375 C6.63136609 30.95505631 11.03625505 31.03921461 15.44140625 31.1171875 C15.46826037 33.42962542 15.48773466 35.7421502 15.50390625 38.0546875 C15.51550781 39.34246094 15.52710938 40.63023437 15.5390625 41.95703125 C15.44140625 45.1171875 15.44140625 45.1171875 14.44140625 46.1171875 C11.58954692 46.24334214 8.76331397 46.30590399 5.91015625 46.3203125 C4.61253357 46.32886261 4.61253357 46.32886261 3.28869629 46.33758545 C1.44931263 46.34705658 -0.39008816 46.35357777 -2.22949219 46.35742188 C-5.01919232 46.36705149 -7.80813166 46.39802209 -10.59765625 46.4296875 C-12.38671439 46.43622511 -14.17577779 46.44147259 -15.96484375 46.4453125 C-16.7902063 46.4576593 -17.61556885 46.4700061 -18.46594238 46.48272705 C-24.92245494 46.45841273 -31.45671435 45.52785621 -36.6796875 41.46875 C-42.89974691 33.31068989 -43.75435533 25.61753935 -43.87109375 15.5546875 C-43.90009766 14.71744141 -43.92910156 13.88019531 -43.95898438 13.01757812 C-43.96736328 12.20353516 -43.97574219 11.38949219 -43.984375 10.55078125 C-43.99895752 9.81915771 -44.01354004 9.08753418 -44.02856445 8.33374023 C-43.32533489 5.01705389 -42.01426139 3.43201135 -39.55859375 1.1171875 C-36.39257812 0.45776367 -36.39257812 0.45776367 -32.65234375 0.41015625 C-31.97881363 0.39489899 -31.30528351 0.37964172 -30.61134338 0.36392212 C-28.42673424 0.32037947 -26.24359915 0.31176413 -24.05859375 0.3046875 C-22.56173936 0.28339323 -21.06491088 0.26019384 -19.56811523 0.23510742 C-15.89749817 0.17921881 -12.2272994 0.15190605 -8.55633545 0.13220215 C-5.70377346 0.11076283 -2.85208455 0.05511711 0 0 Z " fill="#D74344" transform="translate(1095.55859375,148.8828125)"/>
<path d="M0 0 C3.07330072 -0.03757988 6.14624172 -0.06346042 9.21972656 -0.07910156 C10.59233643 -0.08635254 10.59233643 -0.08635254 11.99267578 -0.09375 C18.2241852 -0.07687224 18.2241852 -0.07687224 20.46972656 1.04589844 C20.49659935 2.85831895 20.51606372 4.67085077 20.53222656 6.48339844 C20.54382813 7.49273437 20.55542969 8.50207031 20.56738281 9.54199219 C20.46972656 12.04589844 20.46972656 12.04589844 19.46972656 13.04589844 C18.05747611 13.13877104 16.64063722 13.16336616 15.2253418 13.15942383 C14.32448349 13.1593483 13.42362518 13.15927277 12.49546814 13.15919495 C11.51630936 13.15403366 10.53715057 13.14887238 9.52832031 13.14355469 C8.53091324 13.14213974 7.53350616 13.14072479 6.50587463 13.13926697 C3.30629533 13.13364958 0.10678488 13.12109415 -3.09277344 13.10839844 C-5.25618389 13.10338568 -7.41959543 13.09882238 -9.58300781 13.09472656 C-14.89878669 13.08367451 -20.21452515 13.06691947 -25.53027344 13.04589844 C-25.39563748 14.8145937 -25.25359193 16.58272604 -25.10839844 18.35058594 C-25.03008789 19.33526855 -24.95177734 20.31995117 -24.87109375 21.33447266 C-24.45927613 24.61072371 -23.79854068 26.6156121 -21.53027344 29.04589844 C-17.10424292 30.3247609 -12.55583032 30.24760736 -7.98339844 30.32714844 C-7.17159119 30.34555786 -6.35978394 30.36396729 -5.52337646 30.38293457 C-2.06210096 30.46140492 1.39935419 30.52966996 4.86083984 30.59814453 C7.39202986 30.64970493 9.92304456 30.70697958 12.45410156 30.76464844 C13.63682648 30.7850116 13.63682648 30.7850116 14.84344482 30.80578613 C20.35682368 30.93299555 20.35682368 30.93299555 21.46972656 32.04589844 C21.59487584 34.02209291 21.64545416 36.00328017 21.65722656 37.98339844 C21.67140625 39.06492188 21.68558594 40.14644531 21.70019531 41.26074219 C21.46972656 44.04589844 21.46972656 44.04589844 19.46972656 46.04589844 C16.54977767 46.25851608 13.72727528 46.34985143 10.80566406 46.34667969 C9.93962555 46.35096481 9.07358704 46.35524994 8.18130493 46.35966492 C6.34369786 46.36541641 4.50606801 46.36590247 2.66845703 46.36157227 C-0.1234519 46.3584342 -2.91427858 46.3817839 -5.70605469 46.40722656 C-7.49381377 46.40950188 -9.28157569 46.41020197 -11.06933594 46.40917969 C-11.89672272 46.41838943 -12.7241095 46.42759918 -13.5765686 46.43708801 C-20.48717294 46.38285986 -26.41519031 45.04662825 -31.84277344 40.48339844 C-38.31016169 33.34818205 -38.58630337 22.19318214 -38.50292969 13.04589844 C-38.10691341 5.78238046 -38.10691341 5.78238046 -35.8762207 2.93334961 C-32.8750656 0.51874558 -31.17367184 0.5096011 -27.35058594 0.43652344 C-26.12114258 0.40413574 -24.89169922 0.37174805 -23.625 0.33837891 C-22.31499023 0.32436035 -21.00498047 0.3103418 -19.65527344 0.29589844 C-18.30596058 0.26882397 -16.95667548 0.24033082 -15.60742188 0.21044922 C-10.40530233 0.10425017 -5.20271429 0.06764248 0 0 Z " fill="#D64444" transform="translate(693.5302734375,148.9541015625)"/>
<path d="M0 0 C1.12347839 0.00607269 1.12347839 0.00607269 2.26965332 0.01226807 C3.03894165 0.01035461 3.80822998 0.00844116 4.60083008 0.00646973 C6.22823412 0.00510799 7.85564902 0.00880368 9.48303223 0.01715088 C11.97855963 0.02785086 14.47336714 0.01725555 16.96887207 0.00445557 C18.54830075 0.00577716 20.12772898 0.00833956 21.70715332 0.01226807 C22.45613892 0.0082196 23.20512451 0.00417114 23.97680664 0 C29.25848089 0.04797064 29.25848089 0.04797064 31.48840332 2.27789307 C31.74909973 4.5770874 31.74909973 4.5770874 31.76306152 7.48687744 C31.77735954 9.11997864 31.77735954 9.11997864 31.79194641 10.78607178 C31.791035 11.9693103 31.7901236 13.15254883 31.78918457 14.37164307 C31.7934697 15.58807495 31.79775482 16.80450684 31.8021698 18.05780029 C31.80792484 20.6402728 31.80840478 23.22276152 31.80407715 25.80523682 C31.80093846 29.73390981 31.82428856 33.66181444 31.84973145 37.59039307 C31.85200661 40.10080879 31.85270693 42.61122652 31.85168457 45.12164307 C31.86089432 46.28868774 31.87010406 47.45573242 31.8795929 48.65814209 C31.826492 58.15465952 30.69079671 66.34463611 24.47668457 73.80523682 C18.71602441 78.07197332 12.5579544 78.71754722 5.64855957 78.60601807 C4.84099716 78.6041449 4.03343475 78.60227173 3.20140076 78.6003418 C1.5114625 78.59366912 -0.17846159 78.5798513 -1.86828613 78.55914307 C-4.46633096 78.52768438 -7.06376992 78.51813588 -9.6619873 78.51226807 C-11.30847916 78.50310895 -12.95496481 78.49273668 -14.60144043 78.48101807 C-15.7700486 78.47464325 -15.7700486 78.47464325 -16.96226501 78.46813965 C-22.39435496 78.39513478 -22.39435496 78.39513478 -23.51159668 77.27789307 C-23.60983605 75.61360255 -23.64133299 73.94507376 -23.63659668 72.27789307 C-23.6391748 71.37039307 -23.64175293 70.46289307 -23.64440918 69.52789307 C-23.51159668 67.27789307 -23.51159668 67.27789307 -22.51159668 66.27789307 C-20.21850934 66.1432284 -17.92152536 66.07416341 -15.62487793 66.03179932 C-14.19713801 65.99883531 -12.76940379 65.96562413 -11.3416748 65.93218994 C-9.08821904 65.8849523 -6.83478197 65.84058032 -4.58117676 65.80108643 C-2.40798547 65.76110373 -0.23529054 65.70959725 1.93762207 65.65679932 C3.24046143 65.63174316 4.54330078 65.60668701 5.88562012 65.58087158 C9.45308689 65.28086303 12.21426046 64.71415321 15.48840332 63.27789307 C20.95009331 55.08535809 18.60063717 41.22243735 18.55090332 31.65289307 C18.54587809 29.96409231 18.541317 28.27529011 18.53723145 26.58648682 C18.52630731 22.48358595 18.50909912 18.3807558 18.48840332 14.27789307 C14.61309453 13.69834982 10.78142596 13.16147816 6.86730957 12.96148682 C6.07775879 12.91959229 5.28820801 12.87769775 4.47473145 12.83453369 C3.67486816 12.79521729 2.87500488 12.75590088 2.05090332 12.71539307 C1.22396973 12.67220947 0.39703613 12.62902588 -0.45495605 12.58453369 C-2.47369217 12.47951274 -4.49262619 12.37830747 -6.51159668 12.27789307 C-7.62605166 10.04898311 -7.67639954 8.74734201 -7.69909668 6.27789307 C-7.71327637 5.57664307 -7.72745605 4.87539307 -7.74206543 4.15289307 C-7.17941397 -0.42461031 -3.80569651 0.03456512 0 0 Z " fill="#D64444" transform="translate(763.5115966796875,116.72210693359375)"/>
<path d="M0 0 C4.65892053 -0.12478566 9.31684181 -0.21488741 13.97705078 -0.2746582 C15.55795259 -0.29960626 17.13874142 -0.33357805 18.71923828 -0.37719727 C29.03492721 -0.65450073 37.86276145 -0.69185761 45.89404297 6.7565918 C51.45399988 12.58654345 53.55679253 18.96971365 53.4375 26.9375 C53.43065186 27.64044189 53.42380371 28.34338379 53.41674805 29.06762695 C53.19138958 36.34240096 51.25014453 40.32415245 46.6875 45.75 C43.60284663 48.3325005 40.55141308 50.11984014 37 52 C37.8875923 56.38017863 40.25186505 59.41150132 42.875 62.9375 C45.7693238 66.87027716 48.56767398 70.75551056 51 75 C44.26578088 75.94515356 44.26578088 75.94515356 41.2265625 73.67578125 C38.39647247 70.50687762 36.20192296 67.38690756 34.23046875 63.609375 C30.83036363 57.02409331 30.83036363 57.02409331 24.73974609 53.32128906 C19.15073834 52.49416318 13.62416045 52.6509931 8 53 C8.00523682 53.63091553 8.01047363 54.26183105 8.01586914 54.91186523 C8.03657826 57.75373347 8.04964066 60.59558588 8.0625 63.4375 C8.07087891 64.43072266 8.07925781 65.42394531 8.08789062 66.44726562 C8.09111328 67.39150391 8.09433594 68.33574219 8.09765625 69.30859375 C8.10289307 70.18314209 8.10812988 71.05769043 8.11352539 71.95874023 C8 74 8 74 7 75 C4.66702567 75.04092937 2.33294775 75.04241723 0 75 C-0.8687387 66.33614267 -1.14730101 57.76656057 -1.1328125 49.0625 C-1.13376923 47.77939941 -1.13472595 46.49629883 -1.13571167 45.17431641 C-1.13717135 42.48517628 -1.13508772 39.79606977 -1.13037109 37.10693359 C-1.12462845 33.66616699 -1.12799212 30.22547764 -1.13394356 26.78471375 C-1.13842312 23.48147304 -1.1352903 20.17824171 -1.1328125 16.875 C-1.13483673 15.64273682 -1.13686096 14.41047363 -1.13894653 13.14086914 C-1.13579437 11.9986792 -1.13264221 10.85648926 -1.12939453 9.6796875 C-1.12859894 8.67663574 -1.12780334 7.67358398 -1.12698364 6.64013672 C-1.01288234 4.26783884 -0.67794917 2.26714885 0 0 Z M8 7 C8 19.87 8 32.74 8 46 C13.7234375 46.0928125 13.7234375 46.0928125 19.5625 46.1875 C20.75174072 46.21481201 21.94098145 46.24212402 23.16625977 46.27026367 C30.82825557 46.33024899 35.8109924 45.69293975 41.8125 40.625 C45.85534466 35.22558621 46.39485718 27.65367843 45.69140625 21.14453125 C44.20438204 15.03941944 41.34778688 11.29375055 36 8 C32.82212459 6.9407082 30.57411057 6.88541061 27.23828125 6.90234375 C26.23063721 6.90484131 25.22299316 6.90733887 24.18481445 6.90991211 C22.90695068 6.91901611 21.62908691 6.92812012 20.3125 6.9375 C16.249375 6.958125 12.18625 6.97875 8 7 Z " fill="#D54445" transform="translate(877,274)"/>
<path d="M0 0 C38.48763251 0 38.48763251 0 46.4375 7.2109375 C52.41176482 15.48529427 53.99986038 22.83258859 53 33 C51.48139655 40.08341878 48.1133894 44.5107292 42.8046875 49.30859375 C35.09703205 53.95680379 27.18027022 54.41674268 18.375 54.1875 C17.37082031 54.17396484 16.36664062 54.16042969 15.33203125 54.14648438 C12.88743136 54.11156152 10.44402266 54.06252748 8 54 C8.00523682 54.60062256 8.01047363 55.20124512 8.01586914 55.82006836 C8.03658014 58.52586838 8.04964125 61.23165177 8.0625 63.9375 C8.07087891 64.88302734 8.07925781 65.82855469 8.08789062 66.80273438 C8.09111328 67.70185547 8.09433594 68.60097656 8.09765625 69.52734375 C8.10289307 70.35999756 8.10812988 71.19265137 8.11352539 72.05053711 C8 74 8 74 7 75 C4.69 75 2.38 75 0 75 C0 50.25 0 25.5 0 0 Z M8 7 C8 19.87 8 32.74 8 46 C13.9709375 46.12375 13.9709375 46.12375 20.0625 46.25 C21.92467163 46.30462402 21.92467163 46.30462402 23.82446289 46.36035156 C30.46279254 46.42682599 34.66661367 46.07890344 40 42 C45.2050919 35.42514707 45.80622006 29.19846316 45 21 C43.25500503 15.0769885 40.01957517 11.45095793 35 8 C31.83625821 6.93413823 28.90104914 6.88388306 25.578125 6.90234375 C24.65418945 6.90484131 23.73025391 6.90733887 22.77832031 6.90991211 C21.61397461 6.91901611 20.44962891 6.92812012 19.25 6.9375 C15.5375 6.958125 11.825 6.97875 8 7 Z " fill="#D44545" transform="translate(745,274)"/>
<path d="M0 0 C13.86 0 27.72 0 42 0 C42.495 3.465 42.495 3.465 43 7 C31.45 7 19.9 7 8 7 C8 13.93 8 20.86 8 28 C15.92 28 23.84 28 32 28 C32 29.98 32 31.96 32 34 C30.34920558 35.65079442 28.36263821 35.22549447 26.08984375 35.31640625 C24.75360962 35.37356812 24.75360962 35.37356812 23.39038086 35.43188477 C21.68120483 35.49653931 21.68120483 35.49653931 19.9375 35.5625 C16.328125 35.706875 12.71875 35.85125 9 36 C8.67 46.23 8.34 56.46 8 67 C19.88 67 31.76 67 44 67 C44 69.64 44 72.28 44 75 C29.48 75 14.96 75 0 75 C-1.14774574 71.55676279 -1.12704659 68.89783731 -1.12939453 65.26538086 C-1.13114685 64.58540543 -1.13289917 63.90542999 -1.13470459 63.20484924 C-1.13910447 60.95815476 -1.136192 58.71153903 -1.1328125 56.46484375 C-1.133486 54.90450526 -1.13445641 53.34416687 -1.13571167 51.78382874 C-1.13718605 48.51464844 -1.13504212 45.24549548 -1.13037109 41.97631836 C-1.12466923 37.78066557 -1.12795733 33.58507668 -1.13394356 29.38942623 C-1.13755214 26.16817236 -1.13640929 22.94693372 -1.13381577 19.7256794 C-1.13314757 18.17827916 -1.1339712 16.63087756 -1.13629532 15.08347893 C-1.13882721 12.9240234 -1.13497388 10.76467233 -1.12939453 8.60522461 C-1.12859894 7.37517197 -1.12780334 6.14511932 -1.12698364 4.87779236 C-1 2 -1 2 0 0 Z " fill="#D14647" transform="translate(816,274)"/>
<path d="M0 0 C13.86 0 27.72 0 42 0 C42.495 3.465 42.495 3.465 43 7 C31.45 7 19.9 7 8 7 C8 13.93 8 20.86 8 28 C15.92 28 23.84 28 32 28 C32 29.98 32 31.96 32 34 C30.34920558 35.65079442 28.36263821 35.22549447 26.08984375 35.31640625 C24.75360962 35.37356812 24.75360962 35.37356812 23.39038086 35.43188477 C21.68120483 35.49653931 21.68120483 35.49653931 19.9375 35.5625 C16.328125 35.706875 12.71875 35.85125 9 36 C8.67 46.23 8.34 56.46 8 67 C19.88 67 31.76 67 44 67 C44 69.64 44 72.28 44 75 C29.48 75 14.96 75 0 75 C0 50.25 0 25.5 0 0 Z " fill="#D44545" transform="translate(619,274)"/>
<path d="M0 0 C2.54990479 2.54990479 3.61627577 5.4202956 5 8.6875 C5.63139957 10.15499562 6.26291676 11.62244062 6.89453125 13.08984375 C7.23436035 13.88374512 7.57418945 14.67764648 7.92431641 15.49560547 C9.42083091 18.97977383 10.93977931 22.4540229 12.45703125 25.92919922 C16.56217917 35.34008792 20.63783323 44.76392993 24.69595337 54.19519043 C25.48413572 56.02565697 26.27463705 57.85512443 27.06518555 59.68457031 C27.79088745 61.37404785 27.79088745 61.37404785 28.53125 63.09765625 C28.95986328 64.09289307 29.38847656 65.08812988 29.83007812 66.11352539 C31.01688121 69.04164996 32.03339393 71.99275011 33 75 C26.5697061 75.4853052 26.5697061 75.4853052 24.3125 73.5625 C19 63.19047619 19 63.19047619 19 59 C6.79 59 -5.42 59 -18 59 C-18.99 61.97 -19.98 64.94 -21 68 C-23.6 73.6 -23.6 73.6 -25 75 C-27.33297433 75.04092937 -29.66705225 75.04241723 -32 75 C-29.9335239 68.38282962 -27.40871887 62.06647217 -24.61328125 55.7265625 C-24.19257858 54.76334076 -23.77187592 53.80011902 -23.33842468 52.80770874 C-22.000112 49.74518773 -20.65659892 46.68498533 -19.3125 43.625 C-17.55673556 39.61799912 -15.80337805 35.60994972 -14.05078125 31.6015625 C-13.62435333 30.62785706 -13.19792542 29.65415161 -12.75857544 28.65093994 C-9.566455 21.34543543 -6.45283298 14.0092033 -3.407547 6.64126587 C-1.10500631 1.10500631 -1.10500631 1.10500631 0 0 Z M-1 21 C-4.30439317 27.39786763 -7.46992399 33.84879465 -10.375 40.4375 C-10.87773437 41.57058594 -11.38046875 42.70367187 -11.8984375 43.87109375 C-13.27673404 47.23318385 -13.27673404 47.23318385 -13 52 C-4.42 52 4.16 52 13 52 C14.07846651 47.68613394 13.93265662 47.06389538 12.234375 43.2265625 C11.83863281 42.3190625 11.44289063 41.4115625 11.03515625 40.4765625 C10.61105469 39.53554688 10.18695312 38.59453125 9.75 37.625 C9.34136719 36.69171875 8.93273437 35.7584375 8.51171875 34.796875 C6.45798286 30.13469643 4.33269745 25.52906842 2 21 C1.01 21 0.02 21 -1 21 Z " fill="#D44545" transform="translate(506,274)"/>
<path d="M0 0 C3.26997567 -0.88750328 5.74792825 -1.0276272 9 0 C12.58546502 3.84541709 15.01621867 8.31412415 17.5625 12.875 C18.28937077 14.11241288 19.01916205 15.34811513 19.75195312 16.58203125 C25 25.52820694 25 25.52820694 25 28 C28.23110143 26.64767373 29.66463246 25.45177002 31.3671875 22.40234375 C31.97844482 21.32907837 31.97844482 21.32907837 32.60205078 20.23413086 C33.02212402 19.47624268 33.44219727 18.71835449 33.875 17.9375 C34.76458767 16.39523453 35.65520532 14.85356268 36.546875 13.3125 C37.95817602 10.8454002 39.34283344 8.37094782 40.703125 5.875 C43.10404963 1.75912921 43.10404963 1.75912921 45 0 C48.00611129 -0.74604222 49.87079487 -0.48556631 53 0 C51.723954 3.3818197 50.26522727 6.42341462 48.390625 9.51171875 C47.88273438 10.35283203 47.37484375 11.19394531 46.8515625 12.06054688 C46.32304688 12.92744141 45.79453125 13.79433594 45.25 14.6875 C44.48042969 15.95883789 44.48042969 15.95883789 43.6953125 17.25585938 C43.18226563 18.10341797 42.66921875 18.95097656 42.140625 19.82421875 C41.62951172 20.6754834 41.11839844 21.52674805 40.59179688 22.40380859 C39.50490752 24.17650512 38.38461479 25.92904086 37.23632812 27.66259766 C33.96243215 32.55738205 33.96243215 32.55738205 32.8828125 38.203125 C34.24185388 41.60548035 35.91709946 44.66798801 37.875 47.75 C38.26486084 48.38180176 38.65472168 49.01360352 39.05639648 49.66455078 C39.90427414 51.03759025 40.75625327 52.40810346 41.61181641 53.77636719 C43.61402386 56.98356125 45.59044699 60.20635332 47.56494141 63.43066406 C48.55493398 65.0465437 49.54804784 66.66051561 50.54443359 68.27246094 C50.99512207 69.0049707 51.44581055 69.73748047 51.91015625 70.4921875 C52.31371338 71.14558105 52.71727051 71.79897461 53.13305664 72.47216797 C54 74 54 74 54 75 C50.79730844 75.56187571 49.06787042 75.83076845 46 75 C42.39461678 71.62147235 40.22855454 67.13625117 37.78662109 62.89013672 C36.90788655 61.36360236 36.02698733 59.83831225 35.14404297 58.31420898 C34.26636458 56.78881232 33.40172911 55.25582564 32.55126953 53.71508789 C31.94774658 52.64955688 31.94774658 52.64955688 31.33203125 51.5625 C30.97858643 50.92441406 30.6251416 50.28632813 30.26098633 49.62890625 C28.7425428 47.66742412 27.26504469 46.94955922 25 46 C24.73646729 46.71188477 24.47293457 47.42376953 24.20141602 48.15722656 C22.94721514 51.12489877 21.45839375 53.73706715 19.77734375 56.484375 C19.15666016 57.50144531 18.53597656 58.51851563 17.89648438 59.56640625 C17.25001953 60.61699219 16.60355469 61.66757812 15.9375 62.75 C14.96200195 64.34908203 14.96200195 64.34908203 13.96679688 65.98046875 C9.14959206 73.85040794 9.14959206 73.85040794 8 75 C5.32941149 75.14115161 2.67567762 75.04247107 0 75 C1.33208165 71.45884344 2.90242543 68.27016989 4.828125 65.015625 C5.38113281 64.07976562 5.93414063 63.14390625 6.50390625 62.1796875 C7.08011719 61.21289062 7.65632812 60.24609375 8.25 59.25 C8.81074219 58.29867187 9.37148438 57.34734375 9.94921875 56.3671875 C13.0881206 51.07527444 16.32537852 45.9839246 20.02246094 41.06152344 C21.33573888 38.29196327 20.90829704 36.88449147 20 34 C19.15911602 32.10950542 19.15911602 32.10950542 18.06640625 30.35546875 C17.66921387 29.68580078 17.27202148 29.01613281 16.86279297 28.32617188 C16.43369629 27.62041016 16.00459961 26.91464844 15.5625 26.1875 C15.12309082 25.45208984 14.68368164 24.71667969 14.23095703 23.95898438 C10.58849907 17.89210019 6.84605515 11.88607661 3.04907227 5.91479492 C0 1.10218197 0 1.10218197 0 0 Z " fill="#D54445" transform="translate(675,274)"/>
<path d="M0 0 C1.35568336 0.00333092 1.35568336 0.00333092 2.73875427 0.00672913 C3.75973709 0.00680466 4.78071991 0.00688019 5.8326416 0.00695801 C6.94304306 0.01211929 8.05344452 0.01728058 9.19749451 0.02259827 C10.89336952 0.02472069 10.89336952 0.02472069 12.62350464 0.02688599 C16.25105891 0.03250433 19.8785525 0.04505994 23.50608826 0.05775452 C25.95856133 0.06276715 28.41103536 0.06733047 30.86351013 0.07142639 C36.89022371 0.08247971 42.91690165 0.09923568 48.94358826 0.12025452 C48.94358826 2.43025452 48.94358826 4.74025452 48.94358826 7.12025452 C38.54858826 7.61525452 38.54858826 7.61525452 27.94358826 8.12025452 C27.61358826 30.23025452 27.28358826 52.34025452 26.94358826 75.12025452 C24.63358826 75.12025452 22.32358826 75.12025452 19.94358826 75.12025452 C18.5375107 72.3080994 18.82408339 69.97981232 18.83006287 66.83460999 C18.82991684 66.19058228 18.82977081 65.54655457 18.82962036 64.88301086 C18.83031786 62.75112049 18.83810259 60.61931715 18.84593201 58.48744202 C18.84779677 57.01056465 18.8492204 55.53368667 18.85021973 54.05680847 C18.85404034 50.16713253 18.86386674 46.27749385 18.87492371 42.38783264 C18.88514762 38.41973881 18.88971945 34.45163897 18.89476013 30.48353577 C18.90548941 22.69575639 18.92308253 14.90801542 18.94358826 7.12025452 C11.68358826 7.12025452 4.42358826 7.12025452 -3.05641174 7.12025452 C-3.05641174 0.17873236 -3.05641174 0.17873236 0 0 Z " fill="#CF4747" transform="translate(944.0564117431641,273.87974548339844)"/>
<path d="M0 0 C2.39772034 -0.36749268 2.39772034 -0.36749268 5.44360352 -0.35644531 C6.58140762 -0.35944641 7.71921173 -0.36244751 8.89149475 -0.36553955 C10.12484055 -0.35319275 11.35818634 -0.34084595 12.62890625 -0.328125 C13.88887924 -0.32625183 15.14885223 -0.32437866 16.44700623 -0.32244873 C19.11463343 -0.31571566 21.78150338 -0.30341213 24.44897461 -0.28125 C27.87464745 -0.25293865 31.30008284 -0.24203594 34.72586155 -0.2375679 C37.9852394 -0.23242155 41.24455966 -0.21788137 44.50390625 -0.203125 C45.73927628 -0.19887512 46.9746463 -0.19462524 48.24745178 -0.19024658 C49.38210373 -0.18063904 50.51675568 -0.17103149 51.68579102 -0.16113281 C53.1923098 -0.15089081 53.1923098 -0.15089081 54.72926331 -0.14044189 C57 0 57 0 58 1 C58.09823996 2.47648876 58.12973519 3.95775417 58.125 5.4375 C58.12886719 6.64212891 58.12886719 6.64212891 58.1328125 7.87109375 C58 10 58 10 57 12 C49.60272752 12.06944095 42.20552506 12.12278091 34.80799294 12.15543652 C31.37318046 12.17110785 27.93859059 12.19237214 24.50390625 12.22631836 C20.55731856 12.2650808 16.61082172 12.27969712 12.6640625 12.29296875 C11.42757965 12.30845261 10.1910968 12.32393646 8.91714478 12.33988953 C7.77611298 12.34011612 6.63508118 12.34034271 5.45947266 12.34057617 C4.451315 12.34723801 3.44315735 12.35389984 2.40444946 12.36076355 C1.61098114 12.24171158 0.81751282 12.12265961 0 12 C-2.31332486 8.53001271 -2.33957563 7.07490752 -2 3 C-1.34 2.01 -0.68 1.02 0 0 Z " fill="#D54445" transform="translate(657,117)"/>
<path d="M0 0 C1.13787964 -0.00315216 2.27575928 -0.00630432 3.44812012 -0.009552 C4.6866272 -0.00752777 5.92513428 -0.00550354 7.20117188 -0.00341797 C8.46255981 -0.00437469 9.72394775 -0.00533142 11.02355957 -0.00631714 C13.69689325 -0.00699922 16.37013624 -0.00564076 19.04345703 -0.00097656 C22.47698878 0.00472073 25.91044237 0.00144152 29.34397125 -0.00454903 C32.6088743 -0.00902309 35.87376781 -0.0058943 39.13867188 -0.00341797 C40.37717896 -0.0054422 41.61568604 -0.00746643 42.89172363 -0.009552 C44.02960327 -0.00639984 45.16748291 -0.00324768 46.33984375 0 C47.34720581 0.00079559 48.35456787 0.00159119 49.39245605 0.00241089 C51.66992188 0.12939453 51.66992188 0.12939453 52.66992188 1.12939453 C52.76816125 2.79368505 52.79965818 4.46221384 52.79492188 6.12939453 C52.79878906 7.49064453 52.79878906 7.49064453 52.80273438 8.87939453 C52.66992188 11.12939453 52.66992188 11.12939453 51.66992188 12.12939453 C49.89546178 12.22833231 48.11705936 12.25738546 46.33984375 12.25878906 C45.20196411 12.26194122 44.06408447 12.26509338 42.89172363 12.26834106 C41.65321655 12.26631683 40.41470947 12.2642926 39.13867188 12.26220703 C37.87728394 12.26316376 36.615896 12.26412048 35.31628418 12.2651062 C32.6429505 12.26578828 29.96970751 12.26442982 27.29638672 12.25976562 C23.86285497 12.25406834 20.42940138 12.25734754 16.9958725 12.26333809 C13.73096945 12.26781215 10.46607594 12.26468337 7.20117188 12.26220703 C5.96266479 12.26423126 4.72415771 12.26625549 3.44812012 12.26834106 C2.31024048 12.2651889 1.17236084 12.26203674 0 12.25878906 C-1.00736206 12.25799347 -2.01472412 12.25719788 -3.0526123 12.25637817 C-5.33007812 12.12939453 -5.33007812 12.12939453 -6.33007812 11.12939453 C-6.4283175 9.46510402 -6.45981443 7.79657522 -6.45507812 6.12939453 C-6.45765625 5.22189453 -6.46023438 4.31439453 -6.46289062 3.37939453 C-6.20817518 -0.9357848 -3.75997426 0.00296955 0 0 Z " fill="#D54445" transform="translate(1058.330078125,116.87060546875)"/>
<path d="M0 0 C2.64 0 5.28 0 8 0 C8.02312465 9.63112712 8.04091571 19.26224474 8.05181217 28.89339352 C8.05704074 33.36505549 8.06413789 37.83669853 8.07543945 42.30834961 C8.08626929 46.62011973 8.09227704 50.93187159 8.09487724 55.24365425 C8.09673132 56.89236298 8.1003516 58.54107066 8.10573006 60.18977165 C8.11294178 62.49103872 8.11399089 64.7922294 8.11352539 67.09350586 C8.115746 68.4058873 8.11796661 69.71826874 8.12025452 71.07041931 C8 74 8 74 7 75 C4.69 75 2.38 75 0 75 C0 50.25 0 25.5 0 0 Z " fill="#D44545" transform="translate(553,274)"/>
<path d="M0 0 C2.0625 0.4375 2.0625 0.4375 4 1 C4.15384492 8.64071903 4.30202597 16.28153003 4.4429636 23.92249775 C4.50858382 27.47044707 4.5761594 31.01833675 4.64819336 34.56616211 C4.73090855 38.6442726 4.80513725 42.72249905 4.87890625 46.80078125 C4.90594131 48.07585037 4.93297638 49.35091949 4.96083069 50.66462708 C4.98092697 51.84562485 5.00102325 53.02662262 5.02172852 54.2434082 C5.04171402 55.28487503 5.06169952 56.32634186 5.08229065 57.39936829 C5 60 5 60 4 63 C2.35 63 0.7 63 -1 63 C-1.02312737 54.93347826 -1.04091709 46.86697028 -1.05181217 38.80042362 C-1.05704014 35.05516963 -1.06413622 31.30993824 -1.07543945 27.56469727 C-1.08627141 23.95318313 -1.09227749 20.34169079 -1.09487724 16.73016167 C-1.09673094 15.34939671 -1.10035049 13.968633 -1.10573006 12.58787727 C-1.11294447 10.66024048 -1.11340809 8.73258193 -1.11352539 6.80493164 C-1.115746 5.70572891 -1.11796661 4.60652618 -1.12025452 3.47401428 C-1 1 -1 1 0 0 Z " fill="#D84243" transform="translate(966,284)"/>
<path d="M0 0 C0.96522583 0.23771118 0.96522583 0.23771118 1.94995117 0.48022461 C5.90936116 1.15496918 9.79085702 1.23319782 13.80078125 1.31640625 C15.0553437 1.3475779 15.0553437 1.3475779 16.33525085 1.37937927 C18.99425421 1.44451034 21.65335228 1.5035895 24.3125 1.5625 C26.12045231 1.60571992 27.92839522 1.6493353 29.73632812 1.69335938 C34.15745622 1.80015416 38.57867912 1.90152325 43 2 C43.02685412 4.31243792 43.04632841 6.6249627 43.0625 8.9375 C43.07410156 10.22527344 43.08570313 11.51304687 43.09765625 12.83984375 C43 16 43 16 42 17 C39.04294679 17.08868299 36.10934944 17.11520296 33.15234375 17.09765625 C31.82270348 17.09553383 31.82270348 17.09553383 30.46620178 17.09336853 C27.62326746 17.08775215 24.78041069 17.07519691 21.9375 17.0625 C20.01497509 17.05748711 18.09244896 17.05292384 16.16992188 17.04882812 C11.44658451 17.03777741 6.72330542 17.02050183 2 17 C2 16.67 2 16.34 2 16 C15.2 15.67 28.4 15.34 42 15 C41.505 9.555 41.505 9.555 41 4 C39.29686646 4.01571045 39.29686646 4.01571045 37.55932617 4.03173828 C33.34939727 4.06792055 29.13948213 4.09089402 24.92944336 4.10986328 C23.10682871 4.11992491 21.28423021 4.1335756 19.46166992 4.15087891 C16.84289565 4.17512021 14.22433469 4.18648138 11.60546875 4.1953125 C10.38188911 4.21079636 10.38188911 4.21079636 9.1335907 4.22659302 C5.22869244 4.2273686 3.32475992 4.21650661 0 2 C0 1.34 0 0.68 0 0 Z " fill="#C9494C" transform="translate(1068,178)"/>
<path d="M0 0 C1.35568336 0.00333092 1.35568336 0.00333092 2.73875427 0.00672913 C3.75973709 0.00680466 4.78071991 0.00688019 5.8326416 0.00695801 C6.94304306 0.01211929 8.05344452 0.01728058 9.19749451 0.02259827 C10.89336952 0.02472069 10.89336952 0.02472069 12.62350464 0.02688599 C16.25105891 0.03250433 19.8785525 0.04505994 23.50608826 0.05775452 C25.95856133 0.06276715 28.41103536 0.06733047 30.86351013 0.07142639 C36.89022371 0.08247971 42.91690165 0.09923568 48.94358826 0.12025452 C48.61358826 0.78025452 48.28358826 1.44025452 47.94358826 2.12025452 C23.68858826 1.62525452 23.68858826 1.62525452 -1.05641174 1.12025452 C-0.72641174 2.44025452 -0.39641174 3.76025452 -0.05641174 5.12025452 C6.21358826 5.45025452 12.48358826 5.78025452 18.94358826 6.12025452 C18.94358826 6.45025452 18.94358826 6.78025452 18.94358826 7.12025452 C11.68358826 7.12025452 4.42358826 7.12025452 -3.05641174 7.12025452 C-3.05641174 0.17873236 -3.05641174 0.17873236 0 0 Z " fill="#CA4949" transform="translate(944.0564117431641,273.87974548339844)"/>
<path d="M0 0 C0.33 0 0.66 0 1 0 C1.02578125 0.78761719 1.0515625 1.57523437 1.078125 2.38671875 C1.46833739 9.88057036 2.77426765 16.33558397 5.2578125 23.41796875 C6 26 6 26 5 28 C3.02 25.36 1.04 22.72 -1 20 C-0.34 19.67 0.32 19.34 1 19 C0.67 18.01 0.34 17.02 0 16 C-0.07051114 13.26134713 -0.09357765 10.54972412 -0.0625 7.8125 C-0.05798828 7.06291016 -0.05347656 6.31332031 -0.04882812 5.54101562 C-0.03706354 3.69397617 -0.01912865 1.84697787 0 0 Z " fill="#CD4848" transform="translate(189,336)"/>
<path d="M0 0 C0.75410156 0.00451172 1.50820313 0.00902344 2.28515625 0.01367188 C4.14847127 0.02546501 6.01174555 0.04340058 7.875 0.0625 C7.875 1.0525 7.875 2.0425 7.875 3.0625 C0.945 3.0625 -5.985 3.0625 -13.125 3.0625 C-8.52131234 -0.0066251 -5.41300292 -0.06076774 0 0 Z " fill="#CD4848" transform="translate(985.125,277.9375)"/>
<path d="M0 0 C0.639375 0.680625 1.27875 1.36125 1.9375 2.0625 C5.62709757 5.77342473 9.83346374 8.8501349 14 12 C13.01 12.495 13.01 12.495 12 13 C9.43359375 11.70703125 9.43359375 11.70703125 6.4375 9.8125 C5.44621094 9.20019531 4.45492187 8.58789062 3.43359375 7.95703125 C1 6 1 6 0.16015625 3.88671875 C0 2 0 2 0 0 Z " fill="#CA494A" transform="translate(138,352)"/>
<path d="M0 0 C1.37562854 1.28965176 2.70766393 2.62689293 4 4 C4 4.66 4 5.32 4 6 C4.66 6 5.32 6 6 6 C6.66 7.32 7.32 8.64 8 10 C3.01987239 8.49087042 -0.24259942 5.44338151 -4 2 C-3.34 1.67 -2.68 1.34 -2 1 C-1.34 1.33 -0.68 1.66 0 2 C0 1.34 0 0.68 0 0 Z " fill="#CE4747" transform="translate(166,354)"/>
<path d="M0 0 C1.4540625 0.0309375 1.4540625 0.0309375 2.9375 0.0625 C1.9475 0.7225 0.9575 1.3825 -0.0625 2.0625 C-0.3925 3.0525 -0.7225 4.0425 -1.0625 5.0625 C-1.7225 5.0625 -2.3825 5.0625 -3.0625 5.0625 C-3.0625 7.0425 -3.0625 9.0225 -3.0625 11.0625 C-3.3925 11.0625 -3.7225 11.0625 -4.0625 11.0625 C-4.08938151 9.41675434 -4.10884123 7.77088587 -4.125 6.125 C-4.13660156 5.20847656 -4.14820313 4.29195312 -4.16015625 3.34765625 C-4.00919455 -0.18484756 -3.60673121 0.07360676 0 0 Z " fill="#CF464A" transform="translate(744.0625,182.9375)"/>
<path d="M0 0 C1.35432675 1.31200404 2.68733482 2.64631404 4 4 C4 4.33 4 4.66 4 5 C1.36 5 -1.28 5 -4 5 C-4.33 4.34 -4.66 3.68 -5 3 C-3.35 3 -1.7 3 0 3 C0 2.01 0 1.02 0 0 Z " fill="#C74C4E" transform="translate(924,344)"/>
<path d="M0 0 C1.37478516 0.01740234 1.37478516 0.01740234 2.77734375 0.03515625 C3.69644531 0.04417969 4.61554688 0.05320312 5.5625 0.0625 C6.27277344 0.07410156 6.98304687 0.08570312 7.71484375 0.09765625 C7.71484375 0.42765625 7.71484375 0.75765625 7.71484375 1.09765625 C6.10609375 1.22140625 6.10609375 1.22140625 4.46484375 1.34765625 C0.44099865 2.15242527 -0.76684878 2.97495499 -3.28515625 6.09765625 C-3.32787725 4.4315372 -3.32579457 2.7638274 -3.28515625 1.09765625 C-2.28515625 0.09765625 -2.28515625 0.09765625 0 0 Z " fill="#CB474A" transform="translate(1408.28515625,116.90234375)"/>
<path d="M0 0 C0.33 0.66 0.66 1.32 1 2 C3.31 2 5.62 2 8 2 C7.67 2.66 7.34 3.32 7 4 C4.36 4 1.72 4 -1 4 C-0.67 2.68 -0.34 1.36 0 0 Z " fill="#C64D4F" transform="translate(676,345)"/>
<path d="M0 0 C0.0825 0.598125 0.165 1.19625 0.25 1.8125 C1.20455872 4.5966296 2.57132271 5.43311142 5 7 C2.69 7 0.38 7 -2 7 C-1.34 4.69 -0.68 2.38 0 0 Z " fill="#C74C4E" transform="translate(476,342)"/>
<path d="M0 0 C2 1 2 1 2 1 Z " fill="#BD4C4C" transform="translate(153,366)"/>
<path d="M0 0 C2 1 2 1 2 1 Z " fill="#BF4C50" transform="translate(175,365)"/>
<path d="" fill="#B64D52" transform="translate(0,0)"/>
<path d="" fill="#BC4E51" transform="translate(0,0)"/>
<path d="" fill="#C04F51" transform="translate(0,0)"/>
<path d="" fill="#BD504D" transform="translate(0,0)"/>
<path d="" fill="#C44B52" transform="translate(0,0)"/>
<path d="" fill="#C34A51" transform="translate(0,0)"/>
<path d="" fill="#CB4D50" transform="translate(0,0)"/>
</svg>
